PathFileType	4	(X/Y/Z)	./resultDataOpenSim/trcMotMarkerGrf/sub09/qtm-04-04.trc
DataRate	CameraRate	NumFrames	NumMarkers	Units	OrigDataRate	OrigDataStartFrame	OrigNumFrames
250.000000	250.000000	14	24	m	250.000000	249	496
Frame#	Time	L.Toe.Tip			R.Toe.Tip			L.Ankle.Lat			R.Ankle.Lat			L.Ankle.Med			R.Ankle.Med			L.Heel			R.Heel			L.Knee.Lat			R.Knee.Lat			L.Knee.Med			R.Knee.Med			L.Thigh.Upper			R.Thigh.Upper			L.ASIS			R.ASIS			V.Sacral			L.Acromium			R.Acromium			C7			L.Elbow			R.Elbow			L.Wrist.Lat			R.Wrist.Lat
		X1	Y1	Z1	X2	Y2	Z2	X3	Y3	Z3	X4	Y4	Z4	X5	Y5	Z5	X6	Y6	Z6	X7	Y7	Z7	X8	Y8	Z8	X9	Y9	Z9	X10	Y10	Z10	X11	Y11	Z11	X12	Y12	Z12	X13	Y13	Z13	X14	Y14	Z14	X15	Y15	Z15	X16	Y16	Z16	X17	Y17	Z17	X18	Y18	Z18	X19	Y19	Z19	X20	Y20	Z20	X21	Y21	Z21	X22	Y22	Z22	X23	Y23	Z23	X24	Y24	Z24

249	0.992	0.12978355	-0.034694391	0.023603713	0.47018698	0.10085012	0.13040315	-0.017394838	0.013261136	-0.020738878	0.32425008	0.11443007	0.14823455	0.0073705298	0.032204589	0.073274904	0.34657419	0.14762889	0.055540395	-0.08947286	-0.012899563	0.024912297	0.26075283	0.088715162	0.093117248	0.088320038	0.41639646	-0.082672974	0.44878341	0.54459226	0.18971859	0.092030694	0.41830447	0.042474524	0.44663486	0.53259758	0.065181739	0.15865763	0.83490889	-0.13804963	0.17528689	0.84562004	0.23342386	0.25437914	0.91496689	-0.080472786	0.24909816	0.92822471	0.15864539	0.087675285	0.97997217	0.040209887	0.25764923	1.3744747	-0.11633299	0.21241397	1.382684	0.2101324	0.16641108	1.4279083	0.038462739	0.15343094	1.0135761	-0.19167618	0.045343273	1.0593309	0.27861348	0.39037777	0.8785715	-0.17485761	0.15636187	0.81324448	0.32427857
250	0.996	0.12981345	-0.034769677	0.02358341	0.48936235	0.10127913	0.13037673	-0.0176717	0.013841164	-0.019920437	0.34292018	0.11150737	0.14796258	0.0078574905	0.032727692	0.073935103	0.36475949	0.14522459	0.055252539	-0.089401389	-0.01213585	0.026247568	0.28035857	0.084276598	0.092578396	0.088480982	0.416799	-0.082705141	0.45665812	0.54557981	0.1900224	0.092394463	0.41885921	0.04245982	0.4537163	0.53319043	0.065511072	0.16332647	0.83435708	-0.13777533	0.18107927	0.84533417	0.23378086	0.25977866	0.91407599	-0.08045176	0.25487748	0.92765925	0.15868453	0.093546037	0.97938461	0.04016841	0.26335802	1.3738822	-0.11618368	0.21843467	1.3820932	0.21030656	0.17225893	1.4272436	0.038680545	0.16023793	1.0124859	-0.19158536	0.051086364	1.0591905	0.27888129	0.39882555	0.88034546	-0.17360498	0.16105264	0.81279797	0.32515771
251	1	0.12980633	-0.034831965	0.023590741	0.50845077	0.10175577	0.13047108	-0.017898475	0.014436152	-0.019099159	0.36159408	0.10878545	0.14765408	0.0082821352	0.033202697	0.074599845	0.3829852	0.14295425	0.054960714	-0.08931117	-0.011369603	0.027555366	0.30000231	0.080048822	0.091956507	0.088753212	0.41715289	-0.082710606	0.46368969	0.54661735	0.190514	0.092492778	0.41945568	0.042648331	0.4606991	0.53354157	0.065873168	0.16798672	0.8337217	-0.13750426	0.18684069	0.8449328	0.23413874	0.26537776	0.91311044	-0.080276899	0.26067131	0.92698094	0.15874913	0.099483866	0.97869601	0.040045786	0.26906896	1.3732196	-0.11603371	0.22447728	1.3814241	0.21047586	0.17811814	1.4265052	0.038908075	0.16690724	1.0113172	-0.19130426	0.056927449	1.0589587	0.2792499	0.40722981	0.88205134	-0.17234211	0.16582765	0.8122785	0.32601
252	1.004	0.12978481	-0.034886064	0.023613944	0.52745558	0.10227455	0.13066572	-0.018097019	0.015031915	-0.01824715	0.38020959	0.1062807	0.14733607	0.0087031755	0.033635435	0.075224868	0.40121946	0.14083718	0.054670822	-0.089205447	-0.010610791	0.02879893	0.31969766	0.076035834	0.091221717	0.089160279	0.41747422	-0.082673252	0.47019506	0.54771215	0.19114429	0.092550195	0.42004221	0.042943529	0.46782355	0.53371925	0.066037602	0.17262101	0.83300649	-0.13723225	0.19258061	0.84441588	0.23449983	0.27111069	0.91206304	-0.079979403	0.26648776	0.92619392	0.15883715	0.10537205	0.9779212	0.040002412	0.2747837	1.3724832	-0.115888	0.23055173	1.3806745	0.2106355	0.18398669	1.4256841	0.039133708	0.17355525	1.0100644	-0.19095776	0.062806452	1.0586334	0.27966188	0.41559711	0.8836901	-0.17106967	0.17067969	0.81168511	0.32683455
253	1.008	0.12976172	-0.034935633	0.023648937	0.54634366	0.10285668	0.13094991	-0.018267585	0.015611993	-0.017386141	0.39867841	0.10400358	0.14705787	0.0091464388	0.03404451	0.075783074	0.4194275	0.13888883	0.054377179	-0.089090442	-0.0098584866	0.029945732	0.33945007	0.072249693	0.090339777	0.089729677	0.41776091	-0.082589994	0.47667894	0.54859662	0.19169168	0.092890658	0.42052298	0.043193949	0.47531518	0.53380175	0.065789773	0.17721365	0.83221358	-0.13694261	0.19829719	0.84378657	0.23486037	0.27675759	0.91092938	-0.079712163	0.27234003	0.92530532	0.1589478	0.11115542	0.97708556	0.040099626	0.28050091	1.3716724	-0.11575101	0.23665123	1.3798454	0.21078658	0.18986598	1.4247849	0.039348053	0.1802673	1.0087343	-0.19063976	0.068695425	1.058209	0.28004832	0.42393464	0.88526438	-0.16978745	0.17560223	0.81101637	0.32764088
254	1.012	0.12974	-0.034979218	0.023689975	0.56505446	0.10353462	0.13131789	-0.018392646	0.016164411	-0.016589953	0.41693095	0.10194059	0.14685112	0.0096052209	0.034441339	0.076279331	0.4375762	0.13712117	0.054081018	-0.088978041	-0.0091104358	0.030965456	0.35921816	0.0687067	0.089329654	0.090481248	0.41799443	-0.082475007	0.48314377	0.54899146	0.19199722	0.093774897	0.42083476	0.043295503	0.48313493	0.53382844	0.065201977	0.1817545	0.83134346	-0.13661129	0.20397696	0.84304105	0.23521517	0.28210721	0.90970197	-0.079647213	0.27823672	0.92432163	0.15907734	0.11686686	0.9762014	0.040287027	0.28622394	1.3707872	-0.11562343	0.24276219	1.3789408	0.21093585	0.19575977	1.4238181	0.03954984	0.18705265	1.0073328	-0.19035535	0.074568344	1.0576921	0.28041009	0.43224158	0.88677356	-0.16849944	0.18058483	0.81027035	0.32843449
255	1.016	0.12971972	-0.035019291	0.023735095	0.58355653	0.10430956	0.13175491	-0.01845371	0.016673616	-0.015912557	0.43498825	0.10004551	0.14666586	0.010067935	0.034816184	0.07672415	0.45563301	0.13553616	0.053800641	-0.088875675	-0.008371168	0.03184311	0.37888292	0.0654281	0.088296164	0.09142433	0.41815875	-0.082346903	0.48949004	0.54893439	0.19216563	0.095177864	0.42103961	0.043258105	0.49093142	0.53376968	0.064650073	0.18624508	0.83039901	-0.13622857	0.20962995	0.84217889	0.23557193	0.28716668	0.90837948	-0.079786712	0.28417907	0.92324945	0.15921824	0.12255668	0.97526703	0.040512011	0.29196227	1.3698281	-0.11550265	0.24887895	1.3779638	0.21108973	0.20166935	1.4227897	0.039745746	0.19387943	1.0058617	-0.19006024	0.080387386	1.057103	0.28083546	0.44051087	0.88821015	-0.16721375	0.18561003	0.80944177	0.32921037
256	1.02	0.12970162	-0.035061247	0.02378605	0.60186449	0.10514608	0.13222454	-0.018443875	0.017128497	-0.015348217	0.45297337	0.098248813	0.14639298	0.010515561	0.03514851	0.077123054	0.47356614	0.13412492	0.053562535	-0.088778075	-0.007649343	0.03258373	0.39830258	0.062432354	0.087378975	0.092570308	0.41824912	-0.082210681	0.49577349	0.54860517	0.19239665	0.096832349	0.42124208	0.043170929	0.49835163	0.53356416	0.064453656	0.19071125	0.8293917	-0.13582943	0.21529587	0.84121384	0.23594668	0.29213124	0.90698378	-0.079964177	0.29016453	0.92209895	0.15936217	0.12824301	0.97427713	0.040758723	0.29772423	1.3687995	-0.11538578	0.25500199	1.3769166	0.21124907	0.20759531	1.421706	0.039945018	0.20072204	1.0043201	-0.18972144	0.086121102	1.0564589	0.28141553	0.4487396	0.88956703	-0.16593476	0.1906622	0.80852579	0.32996059
257	1.024	0.12968704	-0.035107939	0.02384303	0.62000894	0.10600007	0.13265932	-0.018366844	0.017534796	-0.014867921	0.47101663	0.096490587	0.14598252	0.010926224	0.03542911	0.077484771	0.49135449	0.13287884	0.053380069	-0.088674044	-0.0069495938	0.033199916	0.41743135	0.059727388	0.086650536	0.093935972	0.41826638	-0.082062781	0.50192406	0.548035	0.19272839	0.098553787	0.42143077	0.043123315	0.50532359	0.53317981	0.064627873	0.19520879	0.82834473	-0.13549613	0.2210071	0.8401655	0.23634613	0.29714077	0.90553818	-0.080055339	0.29619147	0.92088124	0.15950237	0.13391608	0.97323254	0.041022624	0.30351133	1.3677092	-0.11527193	0.26113303	1.3758018	0.21141464	0.21354163	1.4205801	0.040150678	0.20758245	1.0027058	-0.1893479	0.091796257	1.0557576	0.28214265	0.45693148	0.89084512	-0.16465986	0.19573543	0.80752443	0.33068105
258	1.028	0.12967715	-0.035158513	0.023902766	0.63802655	0.1068457	0.13296912	-0.018230054	0.017908789	-0.014461225	0.48918176	0.094748146	0.14548097	0.011289237	0.035662188	0.077810894	0.50899281	0.13179427	0.053240826	-0.0885582	-0.006268472	0.033697137	0.43633287	0.0573097	0.086093079	0.095535563	0.41821215	-0.081906556	0.50780447	0.54720866	0.19304921	0.10037268	0.42149608	0.043164552	0.51201649	0.53263264	0.065002221	0.19978037	0.82728058	-0.13528463	0.2267713	0.83904876	0.23676414	0.30218143	0.90405027	-0.080070777	0.30225714	0.91960592	0.15963083	0.13956573	0.97214477	0.041305848	0.30931813	1.3665632	-0.11516341	0.267274	1.3746226	0.21159041	0.21951374	1.4194256	0.040358499	0.21448787	1.0010203	-0.18899135	0.097499551	1.0549828	0.28290976	0.46509095	0.89204977	-0.16338464	0.20082752	0.80644232	0.33137145
259	1.032	0.12967253	-0.035210971	0.023959562	0.65596785	0.10769789	0.1330645	-0.018040759	0.018263477	-0.014138498	0.50746143	0.093037186	0.14495406	0.011609341	0.035860502	0.078088699	0.52646824	0.13087109	0.053119423	-0.088433553	-0.0055964775	0.034071463	0.45507307	0.055161149	0.08566344	0.0973774	0.41808842	-0.081750902	0.5134728	0.54621578	0.19328259	0.10236982	0.42137147	0.043297604	0.51862494	0.53195411	0.065428279	0.20437528	0.82620213	-0.13512472	0.23258931	0.83787483	0.2371919	0.30719121	0.90252688	-0.080065226	0.3083532	0.91828383	0.15973746	0.1451945	0.9710274	0.041628807	0.3151351	1.3653652	-0.11506676	0.27342358	1.3733833	0.21177638	0.22551691	1.4182477	0.040564978	0.22147597	0.99926915	-0.18871857	0.1032969	1.0541232	0.28362255	0.47322112	0.89318372	-0.16210736	0.20593489	0.80528066	0.3320341
260	1.036	0.12967268	-0.035264444	0.024007943	0.67386567	0.10860734	0.13288733	-0.01780735	0.018604446	-0.013910279	0.52574023	0.09142801	0.14445959	0.011901756	0.03604427	0.078302394	0.5437337	0.13011201	0.053001292	-0.08830469	-0.0049219138	0.034319364	0.47364823	0.053251151	0.085344745	0.099453347	0.41789862	-0.081603777	0.51918608	0.54519399	0.19351944	0.10454321	0.42108127	0.043495314	0.52518628	0.53113041	0.065885067	0.20886691	0.82509861	-0.1348575	0.23846698	0.83665313	0.23762275	0.31214004	0.90097814	-0.080068273	0.31446846	0.91692652	0.15981264	0.15080544	0.9698821	0.042013598	0.32095646	1.364121	-0.11498762	0.27958022	1.3720889	0.21196786	0.23155745	1.4170441	0.040771256	0.22855674	0.99746213	-0.1885469	0.10918887	1.053177	0.28426834	0.48132335	0.89424342	-0.16083127	0.21106122	0.80404218	0.3326747
261	1.04	0.12967627	-0.03531879	0.024045361	0.6916662	0.10962679	0.13244718	-0.017541033	0.018935164	-0.013774029	0.54380933	0.090033689	0.14406616	0.012184505	0.036234045	0.078444857	0.56072412	0.12951382	0.052888245	-0.088173483	-0.0042345808	0.0344443	0.49200034	0.051550227	0.08514825	0.10173363	0.41765086	-0.081472894	0.5251549	0.54421321	0.19391638	0.10684585	0.42068248	0.043717221	0.53153116	0.53006724	0.066494013	0.21319207	0.82396847	-0.13440569	0.24441152	0.83539171	0.23805034	0.31703119	0.89941496	-0.080090635	0.32059277	0.91554358	0.1598453	0.15638412	0.96869762	0.042436447	0.32678788	1.3628373	-0.11492105	0.2857477	1.3707426	0.21216045	0.23764129	1.4158135	0.040978468	0.23567665	0.99561383	-0.18839655	0.11515218	1.0521451	0.28487491	0.48939349	0.8952184	-0.15956447	0.21622017	0.80273509	0.33330178
262	1.044	0.12968188	-0.035373241	0.024071817	0.70923254	0.11078238	0.1318118	-0.017252699	0.019261824	-0.013717899	0.56152449	0.088919144	0.14381291	0.012469296	0.036445521	0.078521334	0.57738272	0.12906275	0.052794888	-0.088039803	-0.0035261	0.034454516	0.51005731	0.050039763	0.085088746	0.10418655	0.41735932	-0.081367798	0.53131398	0.54321248	0.1944619	0.10924982	0.42023316	0.043908628	0.53744409	0.52866824	0.067375479	0.21740934	0.82282384	-0.13382414	0.25043028	0.83410061	0.23846863	0.32188963	0.89785612	-0.080140133	0.32671894	0.91414438	0.15982201	0.16189161	0.96746311	0.042797067	0.33264213	1.3615159	-0.11485339	0.29193051	1.3693441	0.2123506	0.24377094	1.4145616	0.041185441	0.24276263	0.9937392	-0.18815603	0.12117787	1.0510327	0.28546316	0.49742246	0.8960973	-0.15831416	0.22142228	0.80136812	0.33392045
